<svg id="Capa_1" data-name="Capa 1" xmlns="http://www.w3.org/2000/svg" viewBox="0 0 36 36"><defs><style>.cls-1{fill:#c6376f;}.cls-2{fill:#fff;}</style></defs><title>matasMesa de trabajo 3</title><path class="cls-1" d="M18,.67A17.33,17.33,0,1,0,35.33,18,17.33,17.33,0,0,0,18,.67Z"/><path class="cls-2" d="M18,9.88c2.64,0,3,0,4,.06a5.79,5.79,0,0,1,1.84.34,3.27,3.27,0,0,1,1.88,1.88A5.52,5.52,0,0,1,26.06,14c.05,1,.06,1.36.06,4s0,3-.06,4a5.52,5.52,0,0,1-.34,1.84A3.21,3.21,0,0,1,25,25a3.08,3.08,0,0,1-1.14.74,5.26,5.26,0,0,1-1.84.34c-1,.05-1.36.06-4,.06s-3,0-4-.06a5.26,5.26,0,0,1-1.84-.34A3.08,3.08,0,0,1,11,25a3.21,3.21,0,0,1-.74-1.14A5.52,5.52,0,0,1,9.94,22c0-1-.06-1.36-.06-4s0-3,.06-4a5.52,5.52,0,0,1,.34-1.84,3.27,3.27,0,0,1,1.88-1.88A5.79,5.79,0,0,1,14,9.94c1,0,1.36-.06,4-.06M18,8.1c-2.69,0-3,0-4.08.06a7.2,7.2,0,0,0-2.41.46,5,5,0,0,0-2.89,2.9,7.13,7.13,0,0,0-.46,2.4C8.11,15,8.1,15.31,8.1,18s0,3,.06,4.08a7.2,7.2,0,0,0,.46,2.41,5.06,5.06,0,0,0,2.89,2.89,7.2,7.2,0,0,0,2.41.46c1.05.05,1.39.06,4.08.06s3,0,4.08-.06a7.2,7.2,0,0,0,2.41-.46,5.06,5.06,0,0,0,2.89-2.89,7.2,7.2,0,0,0,.46-2.41c.05-1,.06-1.39.06-4.08s0-3-.06-4.08a7.13,7.13,0,0,0-.46-2.4,5,5,0,0,0-2.89-2.9,7.2,7.2,0,0,0-2.41-.46C21,8.11,20.69,8.1,18,8.1Z"/><path class="cls-2" d="M18,12.92A5.09,5.09,0,1,0,23.08,18,5.07,5.07,0,0,0,18,12.92Zm0,8.38A3.3,3.3,0,1,1,21.3,18,3.3,3.3,0,0,1,18,21.3Z"/><circle class="cls-2" cx="23.29" cy="12.72" r="1.19"/></svg>