<svg id="Capa_1" data-name="Capa 1" xmlns="http://www.w3.org/2000/svg" viewBox="0 0 36 36"><defs><style>.cls-1{fill:#65a5db;}.cls-2{fill:#fff;}</style></defs><title>matasMesa de trabajo 2</title><path class="cls-1" d="M18,.67A17.33,17.33,0,1,0,35.33,18,17.33,17.33,0,0,0,18,.67Z"/><path class="cls-2" d="M24.89,14.47c0,.15,0,.3,0,.46A10.1,10.1,0,0,1,9.34,23.44a5.92,5.92,0,0,0,.84,0A7.1,7.1,0,0,0,14.6,22a3.56,3.56,0,0,1-3.32-2.47,3.71,3.71,0,0,0,.67.07,3.54,3.54,0,0,0,.93-.13A3.55,3.55,0,0,1,10,16v-.05a3.53,3.53,0,0,0,1.61.45,3.57,3.57,0,0,1-1.58-3,3.63,3.63,0,0,1,.48-1.79,10.11,10.11,0,0,0,7.33,3.72,3.68,3.68,0,0,1-.09-.82,3.56,3.56,0,0,1,6.15-2.43,7,7,0,0,0,2.25-.86,3.52,3.52,0,0,1-1.56,2,7.24,7.24,0,0,0,2-.56A7.2,7.2,0,0,1,24.89,14.47Z"/></svg>