<svg id="Capa_1" data-name="Capa 1" xmlns="http://www.w3.org/2000/svg" viewBox="0 0 36 36"><defs><style>.cls-1{fill:#c5393c;}.cls-2{fill:#fff;}</style></defs><title>matasMesa de trabajo 4</title><path class="cls-1" d="M18,.67A17.33,17.33,0,1,0,35.33,18,17.33,17.33,0,0,0,18,.67Z"/><path class="cls-2" d="M20.09,11.24h1V15a.42.42,0,0,0,.06.25.24.24,0,0,0,.2.07.56.56,0,0,0,.28-.1,1.43,1.43,0,0,0,.3-.26V11.24h1v4.84h-1v-.54a2,2,0,0,1-.57.45,1.3,1.3,0,0,1-.57.16.65.65,0,0,1-.52-.22,1.05,1.05,0,0,1-.17-.65Z"/><path class="cls-2" d="M16.42,12.35a1.1,1.1,0,0,1,.4-.89,1.61,1.61,0,0,1,1.08-.34,1.47,1.47,0,0,1,1,.35,1.18,1.18,0,0,1,.39.91v2.49a1.29,1.29,0,0,1-.38,1,1.54,1.54,0,0,1-1.06.35,1.44,1.44,0,0,1-1-.37,1.31,1.31,0,0,1-.39-1Z"/><polygon class="cls-2" points="13.74 9.53 14.46 12.15 14.53 12.15 15.22 9.53 16.34 9.53 15.05 13.36 15.05 16.08 13.94 16.08 13.94 13.48 12.62 9.53 13.74 9.53"/><path class="cls-2" d="M12.5,17.6h11a3.16,3.16,0,0,1,3.16,3.16v2.55a3.16,3.16,0,0,1-3.16,3.16h-11a3.16,3.16,0,0,1-3.16-3.16V20.76A3.17,3.17,0,0,1,12.5,17.6Z"/><path class="cls-1" d="M17.85,15.36a.39.39,0,0,0,.31-.11.4.4,0,0,0,.12-.31V12.31a.3.3,0,0,0-.12-.25.45.45,0,0,0-.31-.1.44.44,0,0,0-.3.1.33.33,0,0,0-.11.25v2.63a.42.42,0,0,0,.11.31A.37.37,0,0,0,17.85,15.36Z"/><path class="cls-1" d="M20,20.22a.85.85,0,0,0-.4.1,1.33,1.33,0,0,0-.37.31V18.72h-.89v5.94h.89v-.34a1,1,0,0,0,.37.3,1,1,0,0,0,.46.09.72.72,0,0,0,.59-.24,1.1,1.1,0,0,0,.21-.72V21.32a1.29,1.29,0,0,0-.22-.82A.75.75,0,0,0,20,20.22Zm0,3.41a.47.47,0,0,1-.08.3.27.27,0,0,1-.24.1.54.54,0,0,1-.21-.05.8.8,0,0,1-.2-.15V21.09a.68.68,0,0,1,.18-.13.39.39,0,0,1,.18,0,.34.34,0,0,1,.28.11.55.55,0,0,1,.09.34Z"/><polygon class="cls-1" points="11.78 19.58 12.8 19.58 12.8 24.66 13.79 24.66 13.79 19.58 14.81 19.58 14.81 18.72 11.78 18.72 11.78 19.58"/><path class="cls-1" d="M16.82,23.61a1.18,1.18,0,0,1-.27.23.51.51,0,0,1-.24.09.21.21,0,0,1-.18-.07.32.32,0,0,1-.06-.22V20.27H15.2v3.67a1,1,0,0,0,.15.59.54.54,0,0,0,.46.19,1,1,0,0,0,.51-.14,1.79,1.79,0,0,0,.5-.4v.48h.88V20.27h-.88Z"/><path class="cls-1" d="M22.67,20.17a1.32,1.32,0,0,0-1,.35,1.23,1.23,0,0,0-.37.93v2a1.38,1.38,0,0,0,.34,1,1.19,1.19,0,0,0,.92.36,1.31,1.31,0,0,0,1-.34,1.42,1.42,0,0,0,.33-1V23.2H23v.2a.91.91,0,0,1-.09.5.38.38,0,0,1-.3.11.33.33,0,0,1-.3-.13.92.92,0,0,1-.09-.48v-.83h1.68V21.45a1.33,1.33,0,0,0-.32-.95A1.26,1.26,0,0,0,22.67,20.17ZM23,21.89h-.78v-.44a.67.67,0,0,1,.09-.4.39.39,0,0,1,.31-.12.34.34,0,0,1,.29.12.67.67,0,0,1,.09.4Z"/></svg>